<?xml version="1.0" standalone="no"?>
<!DOCTYPE svg PUBLIC "-//W3C//DTD SVG 20010904//EN"
 "http://www.w3.org/TR/2001/REC-SVG-20010904/DTD/svg10.dtd">
<svg version="1.0" xmlns="http://www.w3.org/2000/svg"
 width="256.000000pt" height="256.000000pt" viewBox="0 0 256.000000 256.000000"
 preserveAspectRatio="xMidYMid meet">

<g transform="translate(0.000000,256.000000) scale(0.100000,-0.100000)"
fill="#000000" stroke="none">
<path d="M0 1280 l0 -1280 1280 0 1280 0 0 1280 0 1280 -1280 0 -1280 0 0
-1280z m1533 906 c358 -106 621 -403 678 -767 17 -111 6 -285 -25 -392 -105
-357 -404 -621 -767 -678 -91 -14 -282 -6 -361 15 -345 93 -597 342 -690 681
-31 116 -31 355 1 470 95 350 385 622 736 691 112 22 319 12 428 -20z"/>
</g>
</svg>
